<?xml version="1.0" encoding="UTF-8"?>
<svg xmlns="http://www.w3.org/2000/svg" xmlns:xlink="http://www.w3.org/1999/xlink" width="147pt" height="147pt" viewBox="0 0 147 147" version="1.1">
<g id="surface1">
<path style=" stroke:none;fill-rule:evenodd;fill:rgb(100%,75.389099%,79.6875%);fill-opacity:1;" d="M 32.9375 56.125 C 20.941406 52.371094 13.34375 54.253906 10.15625 61.75 C 6.96875 69.246094 7.4375 76.09375 11.5625 82.28125 C 15.683594 88.46875 22.8125 88.75 32.9375 83.125 C 40.066406 97.75 50.375 106.1875 63.875 108.4375 C 69.878906 114.441406 76.628906 114.625 84.125 109 C 96.5 105.246094 106.4375 96.625 113.9375 83.125 C 122.5625 88.75 129.222656 88.46875 133.90625 82.28125 C 138.59375 76.09375 139.628906 69.71875 137 63.15625 C 134.371094 56.59375 126.6875 54.253906 113.9375 56.125 C 105.6875 33.625 91.53125 22.84375 71.46875 23.78125 C 51.40625 24.722656 38.5625 35.496094 32.9375 56.125 "/>
<path style=" stroke:none;fill-rule:evenodd;fill:rgb(100%,100%,100%);fill-opacity:1;" d="M 58.8125 47.125 C 65.183594 47.125 68.375 51.53125 68.375 60.34375 C 68.375 69.15625 65.183594 73.5625 58.8125 73.5625 C 52.441406 73.5625 49.25 69.15625 49.25 60.34375 C 49.25 51.53125 52.441406 47.125 58.8125 47.125 "/>
<path style=" stroke:none;fill-rule:evenodd;fill:rgb(100%,100%,100%);fill-opacity:1;" d="M 83.84375 47.96875 C 77.65625 48.90625 74.65625 53.40625 74.84375 61.46875 C 75.03125 69.53125 78.5 73.65625 85.25 73.84375 C 92 74.03125 94.996094 69.53125 94.25 60.34375 C 93.503906 51.15625 90.03125 47.03125 83.84375 47.96875 "/>
<path style="fill:none;stroke-width:11.25;stroke-linecap:butt;stroke-linejoin:miter;stroke:rgb(0%,0%,0%);stroke-opacity:1;stroke-miterlimit:1;" d="M 284.375 863.75 L 312.5 768.125 " transform="matrix(0.1,0,0,-0.1,0,147)"/>
<path style="fill:none;stroke-width:11.25;stroke-linecap:butt;stroke-linejoin:miter;stroke:rgb(0%,0%,0%);stroke-opacity:1;stroke-miterlimit:1;" d="M 1178.75 863.75 L 1156.25 768.125 " transform="matrix(0.1,0,0,-0.1,0,147)"/>
<path style="fill:none;stroke-width:11.25;stroke-linecap:butt;stroke-linejoin:miter;stroke:rgb(0%,0%,0%);stroke-opacity:1;stroke-miterlimit:1;" d="M 295.625 830 C 224.335938 837.460938 181.289062 816.914062 166.25 768.125 " transform="matrix(0.1,0,0,-0.1,0,147)"/>
<path style="fill:none;stroke-width:11.25;stroke-linecap:butt;stroke-linejoin:miter;stroke:rgb(0%,0%,0%);stroke-opacity:1;stroke-miterlimit:1;" d="M 1173.125 813.125 C 1218.125 828.164062 1257.5 822.539062 1291.25 796.25 " transform="matrix(0.1,0,0,-0.1,0,147)"/>
<path style=" stroke:none;fill-rule:nonzero;fill:rgb(0%,0%,0%);fill-opacity:1;" d="M 59.9375 62.3125 C 59.9375 64.796875 57.921875 66.8125 55.4375 66.8125 C 52.953125 66.8125 50.9375 64.796875 50.9375 62.3125 C 50.9375 59.828125 52.953125 57.8125 55.4375 57.8125 C 57.921875 57.8125 59.9375 59.828125 59.9375 62.3125 "/>
<path style=" stroke:none;fill-rule:nonzero;fill:rgb(0%,0%,0%);fill-opacity:1;" d="M 85.8125 63.4375 C 85.8125 65.921875 83.796875 67.9375 81.3125 67.9375 C 78.828125 67.9375 76.8125 65.921875 76.8125 63.4375 C 76.8125 60.953125 78.828125 58.9375 81.3125 58.9375 C 83.796875 58.9375 85.8125 60.953125 85.8125 63.4375 "/>
<path style="fill:none;stroke-width:11.25;stroke-linecap:butt;stroke-linejoin:miter;stroke:rgb(0%,0%,0%);stroke-opacity:1;stroke-miterlimit:1;" d="M 779.375 599.375 C 745.625 558.164062 749.414062 522.460938 790.625 492.5 " transform="matrix(0.1,0,0,-0.1,0,147)"/>
<path style="fill-rule:nonzero;fill:rgb(0%,0%,0%);fill-opacity:1;stroke-width:11.25;stroke-linecap:butt;stroke-linejoin:miter;stroke:rgb(0%,0%,0%);stroke-opacity:1;stroke-miterlimit:1;" d="M 869.375 560 C 869.375 541.367188 854.257812 526.25 835.625 526.25 C 816.992188 526.25 801.875 541.367188 801.875 560 C 801.875 578.632812 816.992188 593.75 835.625 593.75 C 854.257812 593.75 869.375 578.632812 869.375 560 " transform="matrix(0.1,0,0,-0.1,0,147)"/>
<path style="fill:none;stroke-width:11.25;stroke-linecap:butt;stroke-linejoin:miter;stroke:rgb(0%,0%,0%);stroke-opacity:1;stroke-miterlimit:1;" d="M 897.5 610.625 C 920 580.664062 921.835938 550.585938 903.125 520.625 " transform="matrix(0.1,0,0,-0.1,0,147)"/>
<path style=" stroke:none;fill-rule:evenodd;fill:rgb(0%,0%,0%);fill-opacity:1;" d="M 97.0625 90.4375 L 97.625 113.5 C 101.378906 118.746094 104.375 119.40625 106.625 115.46875 C 108.875 111.53125 106.4375 109.183594 99.3125 108.4375 L 98.75 94.9375 L 119 101.125 L 119 117.4375 C 119.746094 125.3125 122.375 127.28125 126.875 123.34375 C 131.375 119.40625 129.3125 116.3125 120.6875 114.0625 L 120.6875 94.9375 L 97.0625 90.4375 "/>
</g>
</svg>
