<?xml version="1.0" encoding="UTF-8"?>
<svg xmlns="http://www.w3.org/2000/svg" xmlns:xlink="http://www.w3.org/1999/xlink" width="265pt" height="188pt" viewBox="0 0 265 188" version="1.1">
<g id="surface1">
<path style=" stroke:none;fill-rule:nonzero;fill:rgb(0%,47.801208%,76.5625%);fill-opacity:1;" d="M 46.246094 78.816406 C 39.15625 81.527344 37.058594 89.820312 42.171875 94.933594 C 44.601562 97.363281 47.835938 98.425781 51.328125 97.9375 L 53.921875 97.578125 L 53.921875 91.386719 L 52.332031 91.941406 C 47.621094 93.59375 43.914062 88.605469 47.3125 85.195312 C 48.671875 83.828125 50.585938 83.65625 52.96875 84.679688 C 53.808594 85.039062 53.921875 84.71875 53.921875 81.914062 C 53.921875 78.792969 53.894531 78.734375 52.28125 78.425781 C 49.953125 77.980469 48.132812 78.097656 46.246094 78.816406 "/>
<path style=" stroke:none;fill-rule:nonzero;fill:rgb(0%,47.801208%,76.5625%);fill-opacity:1;" d="M 20.050781 88.160156 L 20.050781 97.683594 L 25.898438 97.683594 C 30.027344 97.683594 32.199219 97.449219 33.28125 96.890625 C 36.5625 95.195312 37.425781 91.816406 35.132812 89.636719 C 33.652344 88.226562 33.46875 86.964844 34.605469 86.023438 C 35.519531 85.265625 35.644531 82.707031 34.84375 81.226562 C 33.78125 79.265625 31.535156 78.632812 25.609375 78.632812 L 20.050781 78.632812 Z M 29.3125 84.453125 C 29.3125 85.554688 29.023438 85.804688 27.59375 85.9375 C 26.003906 86.082031 25.871094 85.96875 25.871094 84.453125 C 25.871094 82.941406 26.003906 82.824219 27.59375 82.972656 C 29.023438 83.105469 29.3125 83.355469 29.3125 84.453125 Z M 29.84375 91.597656 C 29.84375 93.039062 29.65625 93.199219 27.855469 93.34375 C 25.898438 93.5 25.871094 93.476562 25.871094 91.597656 C 25.871094 89.71875 25.898438 89.695312 27.855469 89.851562 C 29.65625 89.996094 29.84375 90.160156 29.84375 91.597656 "/>
<path style=" stroke:none;fill-rule:nonzero;fill:rgb(0%,47.801208%,76.5625%);fill-opacity:1;" d="M 22.699219 103.308594 C 9.363281 108.140625 7.921875 125.457031 20.316406 131.964844 C 22.609375 133.167969 23.597656 133.351562 27.726562 133.351562 C 34.65625 133.351562 34.867188 133.175781 34.867188 127.320312 C 34.867188 124.671875 34.773438 122.558594 34.65625 122.558594 C 34.539062 122.558594 33.757812 122.917969 32.910156 123.359375 C 30.742188 124.496094 27.109375 124.363281 25.027344 123.074219 C 21.796875 121.074219 21.488281 116.429688 24.390625 113.546875 C 25.746094 112.203125 26.375 111.972656 28.703125 111.972656 C 30.503906 111.972656 32.015625 112.332031 33.148438 113.03125 L 34.867188 114.089844 L 34.867188 109.113281 C 34.867188 103.1875 34.816406 103.132812 28.941406 102.71875 C 26.136719 102.523438 24.425781 102.683594 22.699219 103.308594 "/>
<path style=" stroke:none;fill-rule:nonzero;fill:rgb(0%,47.801208%,76.5625%);fill-opacity:1;" d="M 221.863281 104.429688 C 222.058594 105.542969 222.210938 106.824219 222.210938 107.34375 C 222.210938 108.003906 222.632812 108.269531 223.691406 108.269531 C 224.957031 108.269531 225.378906 107.84375 226.601562 105.359375 L 228.03125 102.449219 L 221.519531 102.449219 L 221.863281 104.429688 "/>
<path style=" stroke:none;fill-rule:nonzero;fill:rgb(0%,47.801208%,76.5625%);fill-opacity:1;" d="M 39.101562 118.589844 L 39.101562 133.140625 L 49.15625 133.140625 L 49.15625 122.558594 L 56.039062 122.558594 L 56.039062 133.140625 L 66.09375 133.140625 L 66.09375 104.035156 L 56.039062 104.035156 L 56.039062 114.089844 L 49.15625 114.089844 L 49.15625 104.035156 L 39.101562 104.035156 L 39.101562 118.589844 "/>
<path style=" stroke:none;fill-rule:nonzero;fill:rgb(0%,47.801208%,76.5625%);fill-opacity:1;" d="M 69.796875 118.589844 L 69.796875 133.140625 L 80.382812 133.140625 L 80.382812 104.035156 L 69.796875 104.035156 L 69.796875 118.589844 "/>
<path style=" stroke:none;fill-rule:nonzero;fill:rgb(0%,47.801208%,76.5625%);fill-opacity:1;" d="M 84.085938 118.589844 L 84.085938 133.140625 L 102.078125 133.140625 L 102.078125 124.144531 L 94.140625 124.144531 L 94.140625 104.035156 L 84.085938 104.035156 L 84.085938 118.589844 "/>
<path style=" stroke:none;fill-rule:nonzero;fill:rgb(0%,47.801208%,76.5625%);fill-opacity:1;" d="M 105.78125 118.589844 L 105.78125 133.246094 L 114.648438 133.035156 C 122.054688 132.859375 123.816406 132.664062 125.363281 131.84375 C 130.933594 128.898438 133.597656 124.671875 133.558594 118.851562 C 133.523438 114.40625 132.601562 111.832031 130.039062 109.0625 C 126.519531 105.25 123.777344 104.40625 114.09375 104.148438 L 105.78125 103.929688 Z M 120.601562 113.316406 C 121.953125 113.710938 123.246094 116.523438 123.246094 119.066406 C 123.246094 122.398438 121.660156 124.167969 118.324219 124.546875 L 115.839844 124.832031 L 115.839844 112.398438 L 117.824219 112.738281 C 118.933594 112.933594 120.15625 113.1875 120.601562 113.316406 "/>
<path style=" stroke:none;fill-rule:nonzero;fill:rgb(0%,47.801208%,76.5625%);fill-opacity:1;" d="M 136.476562 118.535156 L 136.476562 133.140625 L 146.53125 133.140625 L 146.53125 128.90625 C 146.53125 125.785156 146.710938 124.671875 147.21875 124.671875 C 147.597656 124.671875 148.835938 126.578125 149.972656 128.90625 L 152.035156 133.140625 L 157.777344 133.140625 C 162.222656 133.140625 163.429688 132.992188 163.121094 132.480469 C 162.90625 132.117188 161.21875 129.59375 159.390625 126.898438 C 157.5625 124.199219 156.058594 121.796875 156.058594 121.578125 C 156.058594 121.359375 156.746094 120.921875 157.59375 120.601562 C 163.035156 118.546875 162.355469 108.894531 156.535156 105.613281 C 154.351562 104.382812 153.648438 104.289062 145.339844 104.113281 L 136.476562 103.929688 Z M 150.261719 112 C 150.980469 112.386719 151.296875 113.109375 151.296875 114.382812 C 151.296875 115.863281 151.035156 116.308594 149.917969 116.742188 C 147.015625 117.871094 146.53125 117.53125 146.53125 114.355469 C 146.53125 111.601562 146.605469 111.445312 147.882812 111.445312 C 148.621094 111.445312 149.695312 111.695312 150.261719 112 "/>
<path style=" stroke:none;fill-rule:nonzero;fill:rgb(0%,47.801208%,76.5625%);fill-opacity:1;" d="M 166.113281 118.589844 L 166.113281 133.140625 L 186.222656 133.140625 L 186.222656 125.730469 L 176.695312 125.730469 L 176.695312 122.027344 L 185.164062 122.027344 L 185.164062 115.148438 L 176.695312 115.148438 L 176.695312 111.445312 L 185.691406 111.445312 L 185.691406 104.035156 L 166.113281 104.035156 L 166.113281 118.589844 "/>
<path style=" stroke:none;fill-rule:nonzero;fill:rgb(0%,47.801208%,76.5625%);fill-opacity:1;" d="M 189.925781 118.589844 L 189.925781 133.140625 L 199.453125 133.140625 L 199.453125 126.023438 C 199.453125 120.414062 199.597656 118.960938 200.140625 119.171875 C 200.519531 119.316406 202.71875 122.53125 205.007812 126.289062 L 209.191406 133.140625 L 219.035156 133.140625 L 219.035156 104.035156 L 208.820312 104.035156 L 209.191406 111.707031 C 209.484375 117.847656 209.421875 119.328125 208.871094 119.117188 C 208.492188 118.972656 206.28125 115.519531 203.949219 111.445312 L 199.71875 104.035156 L 189.925781 104.035156 L 189.925781 118.589844 "/>
<path style=" stroke:none;fill-rule:nonzero;fill:rgb(0%,47.801208%,76.5625%);fill-opacity:1;" d="M 233.957031 105.003906 C 227.183594 107.410156 223.9375 114.496094 227.515625 119.066406 C 228.964844 120.914062 230.253906 121.570312 234.378906 122.570312 C 237.289062 123.277344 237.847656 123.59375 238.003906 124.648438 C 238.109375 125.335938 237.882812 126.085938 237.503906 126.324219 C 236.171875 127.15625 233.003906 126.800781 230.515625 125.539062 L 228.082031 124.304688 L 226.652344 127.929688 C 225.859375 129.941406 225.367188 131.695312 225.542969 131.871094 C 226.328125 132.65625 233.269531 134.199219 236.019531 134.199219 C 243.800781 134.199219 249.15625 129.421875 248.53125 123.035156 C 248.132812 118.941406 245.703125 116.855469 239.777344 115.515625 C 237.132812 114.914062 236.738281 114.65625 236.585938 113.402344 C 236.347656 111.453125 238.507812 110.945312 241.789062 112.183594 C 243.113281 112.683594 244.359375 113.132812 244.59375 113.191406 C 244.828125 113.25 245.59375 111.8125 246.3125 109.960938 L 247.609375 106.628906 L 245.28125 105.59375 C 241.789062 104.039062 237.320312 103.808594 233.957031 105.003906 "/>
<path style=" stroke:none;fill-rule:nonzero;fill:rgb(0%,47.801208%,76.5625%);fill-opacity:1;" d="M 80.222656 140.546875 C 71.96875 142.628906 66.957031 150.738281 69.007812 158.703125 C 70.261719 163.570312 72.113281 165.851562 76.941406 168.480469 C 79.265625 169.746094 80.167969 169.917969 84.351562 169.894531 C 88.054688 169.875 89.652344 169.621094 91.546875 168.753906 C 99.113281 165.292969 102.367188 156.496094 98.84375 149.019531 C 97.148438 145.417969 95.371094 143.613281 91.8125 141.867188 C 88.722656 140.355469 83.398438 139.75 80.222656 140.546875 Z M 88.371094 151.082031 C 89.671875 152.378906 89.90625 153.039062 89.90625 155.367188 C 89.90625 157.695312 89.671875 158.355469 88.371094 159.65625 C 87.132812 160.894531 86.359375 161.191406 84.351562 161.191406 C 82.339844 161.191406 81.570312 160.894531 80.328125 159.65625 C 79.03125 158.355469 78.792969 157.695312 78.792969 155.367188 C 78.792969 153.039062 79.03125 152.378906 80.328125 151.082031 C 81.570312 149.839844 82.339844 149.546875 84.351562 149.546875 C 86.359375 149.546875 87.132812 149.839844 88.371094 151.082031 "/>
<path style=" stroke:none;fill-rule:nonzero;fill:rgb(0%,47.801208%,76.5625%);fill-opacity:1;" d="M 110.441406 140.808594 C 107.476562 141.761719 104.03125 145.011719 103.136719 147.695312 C 101.882812 151.453125 103.289062 155.296875 106.578125 157.113281 C 107.164062 157.4375 109.171875 158.074219 111.074219 158.542969 C 113.457031 159.128906 114.566406 159.667969 114.683594 160.289062 C 115.183594 162.929688 111.234375 163.566406 107.160156 161.5 C 104.367188 160.082031 104.515625 159.972656 102.847656 164.734375 C 102.3125 166.269531 102.023438 167.683594 102.210938 167.855469 C 102.398438 168.03125 104.195312 168.632812 106.152344 169.175781 C 116.632812 172.085938 124.835938 167.882812 124.835938 159.601562 C 124.835938 155.261719 122.347656 152.914062 116.15625 151.421875 C 113.191406 150.707031 112.066406 149.542969 113.121094 148.277344 C 113.996094 147.230469 116.367188 147.207031 118.800781 148.222656 C 119.859375 148.664062 120.871094 149.019531 121.078125 149.019531 C 121.429688 149.019531 123.777344 143.355469 123.777344 142.507812 C 123.777344 142.363281 122.769531 141.839844 121.554688 141.355469 C 118.429688 140.105469 113.390625 139.855469 110.441406 140.808594 "/>
<path style=" stroke:none;fill-rule:nonzero;fill:rgb(0%,47.801208%,76.5625%);fill-opacity:1;" d="M 128.011719 155.101562 L 128.011719 169.65625 L 138.066406 169.65625 L 138.066406 160.765625 L 142.695312 160.582031 C 146.558594 160.425781 147.625 160.183594 149.125 159.105469 C 152.605469 156.613281 153.867188 150.921875 151.886719 146.636719 C 149.59375 141.675781 146.636719 140.550781 135.894531 140.550781 L 128.011719 140.550781 Z M 142.191406 148.773438 C 144.667969 150.507812 143.144531 153.78125 139.863281 153.78125 L 138.066406 153.78125 L 138.066406 150.871094 C 138.066406 148.066406 138.117188 147.960938 139.546875 147.960938 C 140.339844 147.960938 141.570312 148.339844 142.191406 148.773438 "/>
<path style=" stroke:none;fill-rule:nonzero;fill:rgb(0%,47.801208%,76.5625%);fill-opacity:1;" d="M 156.058594 155.101562 L 156.058594 169.65625 L 166.113281 169.65625 L 166.113281 140.550781 L 156.058594 140.550781 L 156.058594 155.101562 "/>
<path style=" stroke:none;fill-rule:nonzero;fill:rgb(0%,47.801208%,76.5625%);fill-opacity:1;" d="M 169.816406 145.023438 L 169.816406 149.492188 L 172.59375 149.652344 L 175.375 149.8125 L 175.507812 159.734375 L 175.636719 169.65625 L 185.691406 169.65625 L 185.691406 149.546875 L 191.515625 149.546875 L 191.515625 140.550781 L 169.816406 140.550781 L 169.816406 145.023438 "/>
<path style=" stroke:none;fill-rule:nonzero;fill:rgb(0%,47.801208%,76.5625%);fill-opacity:1;" d="M 197.363281 143.832031 C 193.316406 155.527344 188.867188 168.832031 188.867188 169.234375 C 188.867188 169.492188 191.195312 169.636719 194.003906 169.550781 L 199.136719 169.390625 L 200.035156 165.953125 L 208.394531 165.953125 L 208.847656 167.671875 L 209.296875 169.390625 L 214.457031 169.550781 C 219.164062 169.695312 219.601562 169.625 219.457031 168.757812 C 219.367188 168.230469 217.160156 161.691406 214.535156 154.175781 L 209.773438 140.550781 L 198.5 140.550781 Z M 205.230469 153.144531 C 205.511719 154.207031 205.921875 156.136719 206.121094 157.351562 L 206.492188 159.601562 L 204.320312 159.601562 C 201.78125 159.601562 201.78125 159.601562 202.71875 154.519531 C 203.429688 150.65625 204.425781 150.113281 205.230469 153.144531 "/>
<path style=" stroke:none;fill-rule:nonzero;fill:rgb(0%,47.801208%,76.5625%);fill-opacity:1;" d="M 222.210938 155.101562 L 222.210938 169.65625 L 241.261719 169.65625 L 241.261719 160.660156 L 232.265625 160.660156 L 232.265625 140.550781 L 222.210938 140.550781 L 222.210938 155.101562 "/>
<path style=" stroke:none;fill-rule:nonzero;fill:rgb(0%,47.801208%,76.5625%);fill-opacity:1;" d="M 38.574219 155.898438 L 38.574219 170.714844 L 48.628906 170.714844 L 48.628906 160.132812 L 55.507812 160.132812 L 55.507812 170.714844 L 65.035156 170.714844 L 65.035156 141.078125 L 55.507812 141.078125 L 55.507812 151.132812 L 48.628906 151.132812 L 48.628906 141.078125 L 38.574219 141.078125 L 38.574219 155.898438 "/>
<path style=" stroke:none;fill-rule:nonzero;fill:rgb(97.654724%,67.1875%,8.59375%);fill-opacity:1;" d="M 156.761719 13.171875 C 155.816406 14.648438 155.1875 17.246094 155.402344 18.78125 C 155.53125 19.679688 155.335938 20.789062 154.972656 21.238281 C 154.605469 21.695312 154.265625 23.171875 154.203125 24.546875 C 154.148438 25.921875 153.933594 29.523438 153.730469 32.59375 C 153.523438 35.660156 153.5625 38.859375 153.816406 39.734375 C 154.304688 41.421875 158.070312 44.125 160.027344 44.191406 C 161.378906 44.234375 163.726562 40.636719 164.480469 37.355469 C 165.472656 33.0625 165.191406 23.542969 163.925781 18.515625 C 162.859375 14.28125 162.65625 13.910156 161.03125 13.226562 C 158.863281 12.308594 157.328125 12.289062 156.761719 13.171875 "/>
<path style=" stroke:none;fill-rule:nonzero;fill:rgb(97.654724%,67.1875%,8.59375%);fill-opacity:1;" d="M 124.410156 19.46875 C 124.039062 19.839844 123.777344 20.355469 123.777344 20.710938 C 123.777344 21.050781 123.195312 21.574219 122.453125 21.902344 C 121.238281 22.4375 121.15625 22.695312 121.453125 25.023438 C 121.773438 27.519531 124.164062 37.726562 125.675781 43.015625 C 126.144531 44.65625 126.78125 45.820312 127.214844 45.820312 C 127.632812 45.820312 128.199219 46.273438 128.511719 46.855469 C 128.816406 47.421875 129.546875 48.035156 130.128906 48.21875 C 131.398438 48.613281 133.300781 47.683594 133.300781 46.667969 C 133.300781 46.269531 133.945312 45.160156 134.703125 44.261719 C 136.0625 42.644531 136.089844 42.488281 135.523438 39.152344 C 135.203125 37.257812 134.003906 33.175781 132.851562 30.050781 C 131.699219 26.929688 130.605469 23.5 130.417969 22.40625 C 130.132812 20.765625 129.742188 20.28125 128.167969 19.617188 C 125.894531 18.660156 125.242188 18.636719 124.410156 19.46875 "/>
<path style=" stroke:none;fill-rule:nonzero;fill:rgb(97.654724%,67.1875%,8.59375%);fill-opacity:1;" d="M 191.257812 30.476562 C 185.203125 39.101562 181.078125 45.582031 181.292969 46.140625 C 181.410156 46.449219 182.121094 47.007812 182.808594 47.328125 C 183.628906 47.714844 184.222656 48.519531 184.421875 49.527344 C 185.574219 55.289062 189.859375 51.484375 197.832031 37.621094 C 199.8125 34.179688 200.359375 32.78125 199.929688 32.273438 C 199.609375 31.894531 199.5 30.898438 199.6875 30.050781 C 200.113281 28.113281 199.292969 27.394531 196.226562 27.007812 L 193.894531 26.71875 L 191.257812 30.476562 "/>
<path style=" stroke:none;fill-rule:nonzero;fill:rgb(97.654724%,67.1875%,8.59375%);fill-opacity:1;" d="M 94.617188 33.648438 C 94.160156 33.90625 93.355469 35.210938 92.871094 36.480469 L 91.96875 38.835938 L 95.382812 44.050781 C 97.253906 46.90625 100.003906 50.636719 101.46875 52.304688 C 102.957031 53.996094 104.367188 55.746094 104.644531 56.246094 C 105.03125 56.9375 105.316406 57.011719 105.863281 56.566406 C 106.253906 56.246094 107.527344 55.828125 108.695312 55.636719 C 112.558594 55.003906 113.070312 54.824219 113.382812 54.023438 C 113.699219 53.203125 103.976562 36.5625 101.84375 34.285156 C 100.996094 33.378906 100.171875 33.128906 98.109375 33.148438 C 96.628906 33.160156 95.089844 33.382812 94.617188 33.648438 "/>
<path style=" stroke:none;fill-rule:nonzero;fill:rgb(97.654724%,67.1875%,8.59375%);fill-opacity:1;" d="M 140.976562 50.5625 C 125.25 53.324219 118.363281 58.152344 104.792969 75.933594 C 99.945312 82.285156 95.988281 90.523438 96.554688 93.082031 C 96.972656 94.96875 97.261719 95.101562 101.390625 95.238281 C 104.777344 95.351562 104.914062 95.308594 105.863281 93.742188 C 106.394531 92.859375 106.839844 91.335938 106.839844 90.382812 C 106.839844 88.582031 109.402344 83.449219 113.546875 76.9375 C 114.792969 74.980469 115.839844 73.230469 115.839844 73.101562 C 115.839844 72.972656 116.585938 71.753906 117.476562 70.429688 C 119.492188 67.441406 124.359375 64.15625 128.960938 62.679688 C 130.921875 62.050781 132.980469 61.242188 133.566406 60.875 C 137.5625 58.367188 145.101562 57.242188 152.617188 58.03125 C 158.4375 58.640625 167.96875 61.503906 173.414062 64.28125 C 176.644531 65.925781 182.039062 69.847656 184.207031 72.125 C 185.71875 73.710938 192.574219 84.898438 192.574219 85.777344 C 192.574219 86.167969 197.484375 94.296875 198.234375 95.144531 C 198.859375 95.847656 199.320312 95.929688 200.378906 95.515625 C 201.121094 95.222656 202.109375 95.023438 202.574219 95.066406 C 205.175781 95.320312 205.285156 94.667969 203.480469 89.746094 C 202.242188 86.371094 201.484375 84.773438 197.980469 78.15625 C 195.726562 73.90625 185.800781 63.621094 180.71875 60.273438 C 176.007812 57.167969 167.949219 53.160156 163.46875 51.691406 C 159.882812 50.519531 152.722656 49.5 148.648438 49.582031 C 147.339844 49.609375 143.886719 50.050781 140.976562 50.5625 "/>
<path style=" stroke:none;fill-rule:nonzero;fill:rgb(97.654724%,67.1875%,8.59375%);fill-opacity:1;" d="M 218.1875 53.644531 C 216.132812 55.007812 212.101562 57.671875 209.296875 59.515625 C 204.160156 62.886719 203.351562 63.902344 203.554688 66.671875 C 203.597656 67.253906 203.269531 68.136719 202.828125 68.632812 C 201.570312 70.039062 202.097656 71.988281 203.792969 72.183594 C 205.898438 72.421875 212.84375 69.34375 217.976562 65.890625 C 220.460938 64.214844 224.425781 61.867188 226.839844 60.640625 C 229.222656 59.425781 231.203125 58.25 231.203125 58.046875 C 231.203125 57.460938 229.351562 55.878906 228.664062 55.878906 C 228.324219 55.878906 228.03125 55.558594 228.03125 55.1875 C 228.03125 54.800781 227.410156 53.761719 226.617188 52.808594 C 224.613281 50.402344 222.789062 50.582031 218.1875 53.644531 "/>
<path style=" stroke:none;fill-rule:nonzero;fill:rgb(97.654724%,67.1875%,8.59375%);fill-opacity:1;" d="M 74.453125 60.773438 C 72.941406 62.101562 72.464844 62.941406 72.363281 64.476562 C 72.289062 65.589844 72.464844 66.683594 72.761719 66.96875 C 73.511719 67.683594 85.515625 73.640625 88.742188 74.894531 C 90.964844 75.761719 91.789062 75.863281 92.710938 75.390625 C 97.308594 73.03125 96.628906 69.953125 90.59375 65.816406 C 86.996094 63.351562 78.347656 59.027344 77.046875 59.042969 C 76.703125 59.046875 75.511719 59.84375 74.453125 60.773438 "/>
<path style=" stroke:none;fill-rule:nonzero;fill:rgb(97.654724%,67.1875%,8.59375%);fill-opacity:1;" d="M 143.09375 63.433594 C 141.726562 64.191406 140.515625 65.480469 139.679688 67.070312 C 138.507812 69.292969 138.453125 69.667969 139.121094 70.960938 C 139.753906 72.179688 140.128906 72.347656 141.664062 72.101562 C 143.992188 71.726562 145.792969 70.5 147.070312 68.417969 C 148.660156 65.824219 148.832031 64.574219 147.773438 63.339844 C 146.582031 61.949219 145.738281 61.96875 143.09375 63.433594 "/>
<path style=" stroke:none;fill-rule:nonzero;fill:rgb(97.654724%,67.1875%,8.59375%);fill-opacity:1;" d="M 161.933594 65.617188 C 159.5 66.96875 159.09375 70.640625 160.964844 74.398438 C 162.570312 77.628906 163.90625 77.796875 166.378906 75.085938 C 168.820312 72.414062 168.851562 70.429688 166.503906 67.679688 C 163.835938 64.554688 163.835938 64.554688 161.933594 65.617188 "/>
<path style=" stroke:none;fill-rule:nonzero;fill:rgb(97.654724%,67.1875%,8.59375%);fill-opacity:1;" d="M 124.410156 69.933594 C 123.777344 70.378906 122.910156 71.410156 122.507812 72.203125 C 121.851562 73.492188 121.863281 73.871094 122.640625 75.511719 C 123.863281 78.105469 127.636719 82.953125 129.492188 84.320312 C 133.566406 87.324219 140.90625 91.339844 144.574219 92.574219 C 147.582031 93.585938 150.234375 94.015625 155.105469 94.277344 C 164.253906 94.769531 168.652344 93.585938 179.449219 87.722656 C 184.953125 84.734375 185.828125 83.847656 185.125 81.96875 C 184.53125 80.382812 182.519531 80.398438 180.613281 81.996094 C 178.226562 84 173.203125 86.324219 167.171875 88.214844 C 159.710938 90.550781 155.191406 90.550781 148.171875 88.210938 C 141.238281 85.902344 136.757812 83.585938 133.566406 80.660156 C 130.972656 78.285156 127.480469 72.746094 127.480469 71.011719 C 127.480469 69.636719 125.71875 69.015625 124.410156 69.933594 "/>
<path style=" stroke:none;fill-rule:nonzero;fill:rgb(97.654724%,67.1875%,8.59375%);fill-opacity:1;" d="M 224.855469 85.246094 C 224.421875 85.335938 221.652344 85.695312 218.742188 86.042969 L 213.425781 86.675781 L 212.207031 88.953125 C 211.527344 90.222656 211.070312 91.894531 211.175781 92.734375 L 211.359375 94.246094 L 215.859375 94.402344 C 222.261719 94.628906 233.863281 93.679688 236.074219 92.75 C 237.34375 92.214844 238.113281 91.4375 238.519531 90.277344 C 239.335938 87.945312 239.316406 87.859375 237.660156 86.316406 C 236.316406 85.0625 235.914062 84.988281 230.941406 85.035156 C 228.03125 85.066406 225.289062 85.160156 224.855469 85.246094 "/>
<path style=" stroke:none;fill-rule:nonzero;fill:rgb(97.654724%,67.1875%,8.59375%);fill-opacity:1;" d="M 66.515625 85.871094 C 66.042969 85.996094 64.691406 87.257812 63.445312 88.742188 C 61.757812 90.753906 61.359375 91.550781 61.792969 92.074219 C 62.558594 93 76.09375 94.199219 82.390625 93.898438 C 86.890625 93.683594 87.4375 93.539062 88.742188 92.234375 C 90.332031 90.644531 90.117188 89.773438 87.738281 88.085938 C 85.476562 86.484375 70.21875 84.894531 66.515625 85.871094 "/>
</g>
</svg>
