<?xml version="1.0" encoding="UTF-8"?>
<svg xmlns="http://www.w3.org/2000/svg" xmlns:xlink="http://www.w3.org/1999/xlink" width="257pt" height="84pt" viewBox="0 0 257 84" version="1.1">
<g id="surface1">
<path style=" stroke:none;fill-rule:evenodd;fill:rgb(56.079102%,73.725891%,56.079102%);fill-opacity:1;" d="M 4 10 C 15.996094 3.996094 32.503906 5.5 53.5 14.5 C 67 10 90.246094 15.246094 123.25 30.25 L 123.25 82 L 4 82 L 4 10 "/>
<path style=" stroke:none;fill-rule:evenodd;fill:rgb(50.196838%,50.196838%,0%);fill-opacity:1;" d="M 91.75 28 C 121.746094 11.503906 176.503906 4.753906 256 7.75 L 256 82 L 87.25 82 L 91.75 28 "/>
<path style=" stroke:none;fill-rule:evenodd;fill:rgb(41.960144%,55.686951%,13.725281%);fill-opacity:1;" d="M 175 34.75 C 181.003906 25.75 206.5 17.496094 251.5 10 C 221.503906 20.503906 202 30.996094 193 41.5 L 175 34.75 "/>
<path style=" stroke:none;fill-rule:evenodd;fill:rgb(41.960144%,55.686951%,13.725281%);fill-opacity:1;" d="M 253.75 10 C 234.246094 21.996094 221.503906 34.75 215.5 48.25 L 240.25 57.25 C 241.753906 42.246094 246.253906 26.496094 253.75 10 "/>
<path style=" stroke:none;fill-rule:evenodd;fill:rgb(41.960144%,55.686951%,13.725281%);fill-opacity:1;" d="M 121 28 L 152.5 30.25 C 158.503906 24.246094 193 16.75 256 7.75 C 176.503906 9.253906 131.503906 16.003906 121 28 "/>
<path style=" stroke:none;fill-rule:evenodd;fill:rgb(94.117737%,90.196228%,54.902649%);fill-opacity:1;" d="M 4 32.5 C 37.003906 28 75.253906 26.128906 118.75 26.875 C 162.246094 27.621094 208.003906 39.996094 256 64 L 256 82 L 4 82 L 4 32.5 "/>
<path style=" stroke:none;fill-rule:evenodd;fill:rgb(60.392761%,80.392456%,19.607544%);fill-opacity:1;" d="M 1.75 34.75 C 115.753906 19.746094 199.003906 35.496094 251.5 82 L 184 82 C 152.5 48.996094 91.75 33.246094 1.75 34.75 "/>
<path style=" stroke:none;fill-rule:evenodd;fill:rgb(60.392761%,80.392456%,19.607544%);fill-opacity:1;" d="M 4 34.75 C 86.503906 49.753906 133.753906 65.503906 145.75 82 L 96.25 82 C 88.753906 66.996094 58 51.246094 4 34.75 "/>
<path style=" stroke:none;fill-rule:evenodd;fill:rgb(60.392761%,80.392456%,19.607544%);fill-opacity:1;" d="M 4 34.75 C 38.496094 51.246094 56.496094 66.996094 58 82 L 31 82 C 26.5 65.503906 17.5 49.753906 4 34.75 "/>
</g>
</svg>
