<?xml version="1.0" encoding="UTF-8"?>
<svg xmlns="http://www.w3.org/2000/svg" xmlns:xlink="http://www.w3.org/1999/xlink" width="219pt" height="231pt" viewBox="0 0 219 231" version="1.1">
<g id="surface1">
<path style=" stroke:none;fill-rule:evenodd;fill:rgb(100%,0%,0%);fill-opacity:1;" d="M 2 105 C 26.003906 51 54.496094 20.246094 87.5 12.75 C 120.503906 5.253906 164 15.746094 218 44.25 L 218 69 C 166.996094 39.003906 125.75 26.996094 94.25 33 C 62.75 39.003906 31.996094 71.996094 2 132 L 2 105 "/>
<path style=" stroke:none;fill-rule:evenodd;fill:rgb(100%,64.706421%,0%);fill-opacity:1;" d="M 2 127.5 C 29 69 58.25 35.25 89.75 26.25 C 121.25 17.25 164 28.5 218 60 L 218 84.75 C 166.996094 48.75 125.75 36.753906 94.25 48.75 C 62.75 60.746094 31.996094 96.746094 2 156.75 L 2 127.5 "/>
<path style=" stroke:none;fill-rule:evenodd;fill:rgb(100%,100%,0%);fill-opacity:1;" d="M 2 147.75 C 30.503906 87.746094 61.246094 51.746094 94.25 39.75 C 127.253906 27.753906 168.5 40.496094 218 78 L 218 102.75 C 166.996094 60.746094 125.75 48.003906 94.25 64.5 C 62.75 80.996094 31.996094 119.246094 2 179.25 L 2 147.75 "/>
<path style=" stroke:none;fill-rule:evenodd;fill:rgb(0.392151%,99.607849%,0%);fill-opacity:1;" d="M 2 165.75 C 33.5 105.746094 65.746094 69 98.75 55.5 C 131.753906 42 171.496094 54.753906 218 93.75 L 218 116.25 C 165.503906 74.246094 123.878906 62.996094 93.125 82.5 C 62.371094 102.003906 31.996094 139.496094 2 195 L 2 165.75 "/>
<path style=" stroke:none;fill-rule:evenodd;fill:rgb(0%,0%,100%);fill-opacity:1;" d="M 2 186 C 33.5 125.996094 66.125 88.503906 99.875 73.5 C 133.625 58.496094 173 71.25 218 111.75 L 218 136.5 C 166.996094 91.5 125.75 79.503906 94.25 100.5 C 62.75 121.496094 31.996094 159.746094 2 215.25 L 2 186 "/>
<path style=" stroke:none;fill-rule:evenodd;fill:rgb(100%,0%,100%);fill-opacity:1;" d="M 2 199.5 C 35.003906 142.503906 67.628906 106.503906 99.875 91.5 C 132.121094 76.496094 171.496094 88.503906 218 127.5 L 218 150 C 166.996094 105 126.496094 91.121094 96.5 108.375 C 66.503906 125.628906 35.003906 165.75 2 228.75 L 2 199.5 "/>
</g>
</svg>
